<?xml version="1.0" standalone="no"?>
<!DOCTYPE svg PUBLIC "-//W3C//DTD SVG 20010904//EN"
 "http://www.w3.org/TR/2001/REC-SVG-20010904/DTD/svg10.dtd">
<svg version="1.0" xmlns="http://www.w3.org/2000/svg"
 width="800.000000pt" height="800.000000pt" viewBox="0 0 800.000000 800.000000"
 preserveAspectRatio="xMidYMid meet">
<metadata>
Created by potrace 1.14, written by Peter Selinger 2001-2017
</metadata>
<g transform="translate(0.000000,800.000000) scale(0.100000,-0.100000)"
fill="#000000" stroke="none">
<path d="M2230 7168 c0 -54 21 -176 45 -270 l7 -28 -246 0 -246 0 0 -2349 0
-2350 123 -62 c67 -34 127 -65 132 -69 6 -4 120 -65 255 -135 135 -70 281
-147 325 -170 44 -23 168 -89 275 -145 107 -57 197 -105 199 -107 16 -12 -317
-297 -451 -386 -43 -28 -63 -57 -40 -57 5 0 105 50 223 110 118 61 270 138
338 171 l124 61 71 -36 c39 -19 118 -61 176 -91 145 -78 327 -174 437 -231
l93 -49 92 47 c51 26 158 82 238 124 80 42 216 114 304 160 l159 83 306 -156
c168 -86 323 -165 345 -175 24 -12 42 -16 48 -10 6 6 -29 37 -93 82 -56 40
-134 100 -173 134 -82 69 -236 217 -236 226 0 3 33 22 73 42 88 45 320 167
567 298 102 53 250 132 330 173 80 42 186 98 235 124 l90 48 3 2348 2 2347
-241 0 c-226 0 -241 1 -234 18 15 37 44 191 51 265 5 58 4 77 -6 77 -17 0
-190 -98 -296 -168 -49 -33 -117 -89 -152 -126 l-64 -66 -1336 0 -1336 0 -60
64 c-51 53 -194 166 -211 166 -2 0 -34 18 -69 40 -65 39 -161 90 -171 90 -3 0
-5 -28 -5 -62z"/>
</g>
</svg>
